<?xml version="1.0" encoding="utf-8"?>
<!-- Generator: Adobe Illustrator 16.0.0, SVG Export Plug-In . SVG Version: 6.00 Build 0)  -->
<!DOCTYPE svg PUBLIC "-//W3C//DTD SVG 1.1//EN" "http://www.w3.org/Graphics/SVG/1.1/DTD/svg11.dtd">
<svg version="1.1" id="Layer_1" xmlns="http://www.w3.org/2000/svg" xmlns:xlink="http://www.w3.org/1999/xlink" x="0px" y="0px"
	 width="256px" height="256px" viewBox="0 0 256 256" enable-background="new 0 0 256 256" xml:space="preserve">
<path fill="#010101" d="M218.46,87.712c0-0.688-0.171-1.324-0.448-1.89c-0.244-3.523-0.576-4.078-0.875-4.569
	c-0.641-1.051-6.277-6.912-16.781-17.427l-42.658-42.632C147.182,10.69,141.32,5.037,140.316,4.439
	c-1.023-0.635-2.178-1.355-26.367-1.355h-42.36c-6.688,0-22.418,0.021-23.795,0.224c-2.098,0.267-5.269,2.231-6.56,3.501
	c-1.116,1.137-2.61,3.085-3.107,4.788c-0.39,1.286-0.587,9.88-0.587,25.535v181.731c0,0.896,0.011,22.099,0.229,23.796
	c0.262,2.103,2.242,5.252,3.485,6.532c0.897,0.887,2.909,2.553,4.841,3.149c1.623,0.47,14.759,0.576,25.493,0.576h112.816
	c0.896,0,22.099-0.011,23.807-0.226c2.114-0.267,5.273-2.252,6.533-3.5c1.132-1.144,2.615-3.063,3.139-4.814
	c0.385-1.303,0.576-9.875,0.576-25.516V107.584c0-8.839-0.105-14.604-0.245-18.404C218.375,88.721,218.46,88.229,218.46,87.712z
	 M138.16,14.239c2.775,2.658,7.408,7.206,13.345,13.152l42.658,42.638c5.937,5.914,10.462,10.547,13.12,13.312h-51.637
	c-9.65,0-17.486-7.847-17.486-17.492V14.239L138.16,14.239z M209.707,218.863c0,12.768-0.191,22.332-0.129,22.781
	c-0.105,0.234-0.544,0.875-1.003,1.346c-0.331,0.287-1.474,0.961-1.324,1.014c-0.96,0.064-9.649,0.16-22.845,0.16H71.589
	c-10.819,0-19.349-0.139-21.959-0.139c-0.47,0-0.752,0.011-0.822,0.021c-0.229-0.116-0.886-0.565-1.334-1.015
	c-0.283-0.311-0.897-1.346-1.014-1.346h-0.011c-0.064-0.961-0.166-9.629-0.166-22.824V37.132c0-13.28,0.197-22.354,0.155-22.813
	c0.096-0.219,0.534-0.875,0.961-1.302c0.331-0.294,1.489-0.961,1.388-1.03c1.051-0.075,10.067-0.149,22.802-0.149h42.36
	c6.192,0,11.503,0.075,15.458,0.187v53.836c0,14.465,11.774,26.234,26.239,26.234h53.891c0.096,3.972,0.171,9.293,0.171,15.49
	L209.707,218.863L209.707,218.863z M82.842,173.776v-34.973h11.265c2.37,0,4.548,0.408,6.533,1.226
	c1.985,0.816,3.695,1.966,5.128,3.446c1.433,1.481,2.55,3.251,3.351,5.309s1.201,4.319,1.201,6.785v1.466
	c0,2.481-0.4,4.748-1.201,6.797c-0.801,2.05-1.918,3.812-3.351,5.284c-1.433,1.474-3.135,2.618-5.104,3.436
	c-1.97,0.816-4.124,1.225-6.461,1.225H82.842z M91.273,145.313v21.978h2.93c2.417,0,4.275-0.86,5.572-2.582
	c1.297-1.721,1.946-4.279,1.946-7.674v-1.514c0-3.379-0.648-5.925-1.946-7.638c-1.297-1.714-3.187-2.57-5.668-2.57H91.273z
	 M143.276,157.011c0,2.675-0.376,5.076-1.129,7.206s-1.806,3.939-3.159,5.428c-1.354,1.489-2.962,2.631-4.828,3.423
	c-1.865,0.793-3.91,1.189-6.136,1.189c-2.258,0-4.328-0.396-6.209-1.189c-1.882-0.792-3.499-1.934-4.852-3.423
	c-1.354-1.488-2.406-3.298-3.159-5.428c-0.753-2.13-1.129-4.531-1.129-7.206v-1.417c0-2.674,0.373-5.076,1.117-7.206
	s1.793-3.939,3.146-5.429c1.353-1.489,2.966-2.634,4.84-3.435s3.939-1.201,6.197-1.201c2.225,0,4.276,0.4,6.149,1.201
	s3.486,1.945,4.84,3.435s2.41,3.299,3.17,5.429c0.761,2.13,1.142,4.532,1.142,7.206V157.011z M134.701,155.546
	c0-3.475-0.58-6.113-1.741-7.915c-1.161-1.801-2.822-2.702-4.984-2.702c-2.258,0-3.943,0.901-5.056,2.702
	c-1.113,1.802-1.669,4.44-1.669,7.915v1.465c0,3.427,0.568,6.062,1.705,7.902c1.137,1.842,2.826,2.763,5.068,2.763
	c2.146,0,3.794-0.917,4.948-2.751c1.153-1.833,1.729-4.471,1.729-7.914V155.546z M174.936,161.935
	c-0.08,1.825-0.473,3.495-1.178,5.008c-0.705,1.514-1.682,2.811-2.93,3.892c-1.25,1.081-2.746,1.922-4.492,2.522
	c-1.745,0.6-3.699,0.9-5.86,0.9c-2.339,0-4.424-0.393-6.257-1.177c-1.834-0.784-3.387-1.91-4.66-3.375s-2.242-3.251-2.906-5.356
	c-0.665-2.105-0.997-4.472-0.997-7.098v-1.897c0-2.626,0.349-4.992,1.045-7.098s1.689-3.896,2.979-5.368
	c1.288-1.474,2.838-2.606,4.647-3.399c1.81-0.792,3.827-1.188,6.053-1.188c2.273,0,4.288,0.316,6.041,0.948
	c1.754,0.633,3.238,1.51,4.456,2.631c1.217,1.12,2.169,2.449,2.858,3.986c0.688,1.538,1.113,3.211,1.273,5.021h-8.407
	c-0.032-0.977-0.165-1.841-0.396-2.594c-0.232-0.753-0.597-1.377-1.093-1.874c-0.496-0.496-1.129-0.872-1.897-1.129
	c-0.769-0.256-1.714-0.384-2.835-0.384c-1.041,0-1.945,0.191-2.714,0.576c-0.769,0.384-1.409,0.993-1.921,1.825
	c-0.514,0.833-0.894,1.91-1.142,3.23c-0.249,1.321-0.372,2.911-0.372,4.769v1.945c0,1.857,0.111,3.443,0.336,4.756
	c0.225,1.313,0.58,2.39,1.069,3.23c0.488,0.841,1.129,1.453,1.921,1.838c0.793,0.384,1.766,0.576,2.919,0.576
	c1.937,0,3.419-0.456,4.443-1.369s1.569-2.361,1.634-4.348H174.936z"/>
</svg>
