<?xml version="1.0" encoding="utf-8"?>
<!-- Generator: Adobe Illustrator 16.0.0, SVG Export Plug-In . SVG Version: 6.00 Build 0)  -->
<!DOCTYPE svg PUBLIC "-//W3C//DTD SVG 1.1//EN" "http://www.w3.org/Graphics/SVG/1.1/DTD/svg11.dtd">
<svg version="1.1" id="Layer_1" xmlns="http://www.w3.org/2000/svg" xmlns:xlink="http://www.w3.org/1999/xlink" x="0px" y="0px"
	 width="256px" height="256px" viewBox="0 0 256 256" enable-background="new 0 0 256 256" xml:space="preserve">
<path fill="#010101" d="M218.46,87.712c0-0.688-0.171-1.324-0.448-1.89c-0.244-3.523-0.576-4.078-0.875-4.569
	c-0.641-1.051-6.277-6.912-16.781-17.427l-42.658-42.632C147.182,10.69,141.32,5.037,140.316,4.439
	c-1.023-0.635-2.178-1.355-26.367-1.355h-42.36c-6.688,0-22.418,0.021-23.795,0.224c-2.098,0.267-5.269,2.231-6.56,3.501
	c-1.116,1.137-2.61,3.085-3.107,4.788c-0.39,1.286-0.587,9.88-0.587,25.535v181.731c0,0.896,0.011,22.099,0.229,23.796
	c0.262,2.103,2.242,5.252,3.485,6.532c0.897,0.887,2.909,2.553,4.841,3.149c1.623,0.47,14.759,0.576,25.493,0.576h112.816
	c0.896,0,22.099-0.011,23.807-0.226c2.114-0.267,5.273-2.252,6.533-3.5c1.132-1.144,2.615-3.063,3.139-4.814
	c0.385-1.303,0.576-9.875,0.576-25.516V107.584c0-8.839-0.105-14.604-0.245-18.404C218.375,88.721,218.46,88.229,218.46,87.712z
	 M138.16,14.239c2.775,2.658,7.408,7.206,13.345,13.152l42.658,42.638c5.937,5.914,10.462,10.547,13.12,13.312h-51.637
	c-9.65,0-17.486-7.847-17.486-17.492V14.239L138.16,14.239z M209.707,218.863c0,12.768-0.191,22.332-0.129,22.781
	c-0.105,0.234-0.544,0.875-1.003,1.346c-0.331,0.287-1.474,0.961-1.324,1.014c-0.96,0.064-9.649,0.16-22.845,0.16H71.589
	c-10.819,0-19.349-0.139-21.959-0.139c-0.47,0-0.752,0.011-0.822,0.021c-0.229-0.116-0.886-0.565-1.334-1.015
	c-0.283-0.311-0.897-1.346-1.014-1.346h-0.011c-0.064-0.961-0.166-9.629-0.166-22.824V37.132c0-13.28,0.197-22.354,0.155-22.813
	c0.096-0.219,0.534-0.875,0.961-1.302c0.331-0.294,1.489-0.961,1.388-1.03c1.051-0.075,10.067-0.149,22.802-0.149h42.36
	c6.192,0,11.503,0.075,15.458,0.187v53.836c0,14.465,11.774,26.234,26.239,26.234h53.891c0.096,3.972,0.171,9.293,0.171,15.49
	L209.707,218.863L209.707,218.863z M101.493,164.48c0-0.544-0.076-1.036-0.228-1.477c-0.152-0.44-0.453-0.856-0.901-1.249
	s-1.077-0.781-1.885-1.165c-0.809-0.385-1.87-0.793-3.183-1.226c-1.538-0.512-3.019-1.088-4.444-1.729
	c-1.425-0.64-2.69-1.4-3.795-2.281s-1.99-1.91-2.654-3.087s-0.997-2.55-0.997-4.119c0-1.505,0.336-2.862,1.009-4.071
	c0.672-1.209,1.609-2.237,2.81-3.087c1.201-0.848,2.622-1.505,4.264-1.969c1.641-0.465,3.431-0.697,5.368-0.697
	c1.906,0,3.659,0.257,5.26,0.769c1.601,0.513,2.979,1.241,4.131,2.187c1.153,0.944,2.054,2.086,2.702,3.423
	c0.649,1.337,0.973,2.83,0.973,4.479h-8.407c0-0.656-0.101-1.262-0.3-1.813c-0.201-0.553-0.504-1.024-0.913-1.417
	c-0.408-0.393-0.913-0.701-1.513-0.925c-0.601-0.225-1.309-0.337-2.125-0.337c-0.801,0-1.505,0.093-2.114,0.276
	c-0.609,0.185-1.117,0.44-1.525,0.769s-0.717,0.705-0.925,1.129c-0.208,0.425-0.312,0.877-0.312,1.357
	c0,0.528,0.148,1.005,0.444,1.429c0.296,0.425,0.721,0.825,1.273,1.201c0.552,0.377,1.225,0.729,2.018,1.057
	c0.792,0.329,1.685,0.653,2.678,0.973c1.857,0.593,3.515,1.249,4.972,1.97c1.457,0.721,2.686,1.546,3.687,2.475
	c1,0.929,1.761,1.978,2.282,3.146c0.52,1.169,0.781,2.49,0.781,3.963c0,1.569-0.309,2.967-0.925,4.191
	c-0.617,1.226-1.489,2.254-2.618,3.087s-2.49,1.465-4.083,1.897s-3.367,0.648-5.32,0.648c-1.201,0-2.394-0.101-3.579-0.301
	c-1.186-0.199-2.318-0.508-3.399-0.924c-1.081-0.417-2.09-0.941-3.026-1.574c-0.937-0.632-1.746-1.389-2.426-2.27
	c-0.681-0.88-1.217-1.881-1.609-3.002c-0.392-1.121-0.588-2.37-0.588-3.747h8.455c0,1.024,0.136,1.885,0.408,2.582
	c0.272,0.696,0.673,1.261,1.201,1.693s1.173,0.74,1.934,0.925c0.76,0.184,1.637,0.276,2.63,0.276c0.801,0,1.485-0.093,2.054-0.276
	c0.568-0.185,1.037-0.433,1.405-0.745c0.368-0.312,0.636-0.676,0.805-1.093C101.409,165.386,101.493,164.945,101.493,164.48z
	 M126.835,164.265l6.966-25.461h9.416l-11.771,34.973h-9.223l-11.674-34.973h9.344L126.835,164.265z M173.098,169.453
	c-0.449,0.496-1.073,1.024-1.873,1.585c-0.801,0.561-1.777,1.081-2.931,1.562s-2.486,0.877-3.999,1.188
	c-1.514,0.312-3.215,0.469-5.104,0.469c-2.339,0-4.452-0.377-6.341-1.129c-1.891-0.753-3.508-1.85-4.853-3.291
	s-2.382-3.214-3.11-5.32c-0.729-2.105-1.093-4.52-1.093-7.241v-1.946c0-2.722,0.368-5.14,1.104-7.254
	c0.736-2.113,1.766-3.895,3.087-5.344s2.894-2.55,4.72-3.303s3.827-1.129,6.005-1.129c2.417,0,4.491,0.292,6.222,0.876
	c1.729,0.585,3.17,1.405,4.322,2.463c1.153,1.057,2.034,2.313,2.643,3.771s1.001,3.059,1.178,4.804h-8.119
	c-0.129-0.864-0.324-1.633-0.588-2.306c-0.265-0.673-0.633-1.24-1.105-1.705s-1.057-0.816-1.754-1.057
	c-0.696-0.24-1.533-0.36-2.51-0.36c-1.009,0-1.926,0.216-2.75,0.648c-0.825,0.432-1.525,1.085-2.102,1.957
	c-0.576,0.873-1.021,1.966-1.334,3.279c-0.312,1.312-0.468,2.851-0.468,4.611v1.994c0,3.49,0.597,6.112,1.79,7.866
	c1.192,1.753,3.07,2.63,5.632,2.63c0.673,0,1.273-0.044,1.802-0.132s0.992-0.204,1.393-0.349c0.4-0.144,0.74-0.304,1.021-0.48
	c0.279-0.176,0.508-0.344,0.685-0.504v-5.429h-5.86v-5.789h14.291V169.453z"/>
</svg>
