<?xml version="1.0" encoding="utf-8"?>
<!-- Generator: Adobe Illustrator 16.0.0, SVG Export Plug-In . SVG Version: 6.00 Build 0)  -->
<!DOCTYPE svg PUBLIC "-//W3C//DTD SVG 1.1//EN" "http://www.w3.org/Graphics/SVG/1.1/DTD/svg11.dtd">
<svg version="1.1" id="Layer_1" xmlns="http://www.w3.org/2000/svg" xmlns:xlink="http://www.w3.org/1999/xlink" x="0px" y="0px"
	 width="256px" height="256px" viewBox="0 0 256 256" enable-background="new 0 0 256 256" xml:space="preserve">
<path fill="#010101" d="M218.46,87.712c0-0.688-0.171-1.324-0.448-1.89c-0.244-3.523-0.576-4.078-0.875-4.569
	c-0.641-1.051-6.277-6.912-16.781-17.427l-42.658-42.632C147.182,10.69,141.32,5.037,140.316,4.439
	c-1.023-0.635-2.178-1.355-26.367-1.355h-42.36c-6.688,0-22.418,0.021-23.795,0.224c-2.098,0.267-5.269,2.231-6.56,3.501
	c-1.116,1.137-2.61,3.085-3.107,4.788c-0.39,1.286-0.587,9.88-0.587,25.535v181.731c0,0.896,0.011,22.099,0.229,23.796
	c0.262,2.103,2.242,5.252,3.485,6.532c0.897,0.887,2.909,2.553,4.841,3.149c1.623,0.47,14.759,0.576,25.493,0.576h112.816
	c0.896,0,22.099-0.011,23.807-0.226c2.114-0.267,5.273-2.252,6.533-3.5c1.132-1.144,2.615-3.063,3.139-4.814
	c0.385-1.303,0.576-9.875,0.576-25.516V107.584c0-8.839-0.105-14.604-0.245-18.404C218.375,88.721,218.46,88.229,218.46,87.712z
	 M138.16,14.239c2.775,2.658,7.408,7.206,13.345,13.152l42.658,42.638c5.937,5.914,10.462,10.547,13.12,13.312h-51.637
	c-9.65,0-17.486-7.847-17.486-17.492V14.239L138.16,14.239z M209.707,218.863c0,12.768-0.191,22.332-0.129,22.781
	c-0.105,0.234-0.544,0.875-1.003,1.346c-0.331,0.287-1.474,0.961-1.324,1.014c-0.96,0.064-9.649,0.16-22.845,0.16H71.589
	c-10.819,0-19.349-0.139-21.959-0.139c-0.47,0-0.752,0.011-0.822,0.021c-0.229-0.116-0.886-0.565-1.334-1.015
	c-0.283-0.311-0.897-1.346-1.014-1.346h-0.011c-0.064-0.961-0.166-9.629-0.166-22.824V37.132c0-13.28,0.197-22.354,0.155-22.813
	c0.096-0.219,0.534-0.875,0.961-1.302c0.331-0.294,1.489-0.961,1.388-1.03c1.051-0.075,10.067-0.149,22.802-0.149h42.36
	c6.192,0,11.503,0.075,15.458,0.187v53.836c0,14.465,11.774,26.234,26.239,26.234h53.891c0.096,3.972,0.171,9.293,0.171,15.49
	L209.707,218.863L209.707,218.863z M112.615,145.313h-10.497v28.463h-8.431v-28.463H83.383v-6.51h29.232V145.313z M128.228,150.43
	l5.717-11.626h9.631l-9.775,17.343l10.04,17.63h-9.728l-5.885-11.842l-5.885,11.842h-9.704l10.016-17.63l-9.752-17.343h9.608
	L128.228,150.43z M173.05,145.313h-10.497v28.463h-8.431v-28.463h-10.304v-6.51h29.231V145.313z"/>
</svg>
