<?xml version="1.0" encoding="utf-8"?>
<!-- Generator: Adobe Illustrator 16.0.0, SVG Export Plug-In . SVG Version: 6.00 Build 0)  -->
<!DOCTYPE svg PUBLIC "-//W3C//DTD SVG 1.1//EN" "http://www.w3.org/Graphics/SVG/1.1/DTD/svg11.dtd">
<svg version="1.1" id="Layer_1" xmlns="http://www.w3.org/2000/svg" xmlns:xlink="http://www.w3.org/1999/xlink" x="0px" y="0px"
	 width="256px" height="256px" viewBox="0 0 256 256" enable-background="new 0 0 256 256" xml:space="preserve">
<path fill="#010101" d="M218.46,87.712c0-0.688-0.171-1.324-0.448-1.89c-0.244-3.523-0.576-4.078-0.875-4.569
	c-0.641-1.051-6.277-6.912-16.781-17.427l-42.658-42.632C147.182,10.69,141.32,5.037,140.316,4.439
	c-1.023-0.635-2.178-1.355-26.367-1.355h-42.36c-6.688,0-22.418,0.021-23.795,0.224c-2.098,0.267-5.269,2.231-6.56,3.501
	c-1.116,1.137-2.61,3.085-3.107,4.788c-0.39,1.286-0.587,9.88-0.587,25.535v181.731c0,0.896,0.011,22.099,0.229,23.796
	c0.262,2.103,2.242,5.252,3.485,6.532c0.897,0.887,2.909,2.553,4.841,3.149c1.623,0.47,14.759,0.576,25.493,0.576h112.816
	c0.896,0,22.099-0.011,23.807-0.226c2.114-0.267,5.273-2.252,6.533-3.5c1.132-1.144,2.615-3.063,3.139-4.814
	c0.385-1.303,0.576-9.875,0.576-25.516V107.584c0-8.839-0.105-14.604-0.245-18.404C218.375,88.721,218.46,88.229,218.46,87.712z
	 M138.16,14.239c2.775,2.658,7.408,7.206,13.345,13.152l42.658,42.638c5.937,5.914,10.462,10.547,13.12,13.312h-51.637
	c-9.65,0-17.486-7.847-17.486-17.492V14.239L138.16,14.239z M209.707,218.863c0,12.768-0.191,22.332-0.129,22.781
	c-0.105,0.234-0.544,0.875-1.003,1.346c-0.331,0.287-1.474,0.961-1.324,1.014c-0.96,0.064-9.649,0.16-22.845,0.16H71.589
	c-10.819,0-19.349-0.139-21.959-0.139c-0.47,0-0.752,0.011-0.822,0.021c-0.229-0.116-0.886-0.565-1.334-1.015
	c-0.283-0.311-0.897-1.346-1.014-1.346h-0.011c-0.064-0.961-0.166-9.629-0.166-22.824V37.132c0-13.28,0.197-22.354,0.155-22.813
	c0.096-0.219,0.534-0.875,0.961-1.302c0.331-0.294,1.489-0.961,1.388-1.03c1.051-0.075,10.067-0.149,22.802-0.149h42.36
	c6.192,0,11.503,0.075,15.458,0.187v53.836c0,14.465,11.774,26.234,26.239,26.234h53.891c0.096,3.972,0.171,9.293,0.171,15.49
	L209.707,218.863L209.707,218.863z M85.402,150.43l5.717-11.626h9.632l-9.776,17.343l10.04,17.63h-9.728l-5.885-11.842
	l-5.885,11.842h-9.704l10.016-17.63l-9.752-17.343h9.608L85.402,150.43z M111.201,167.291h14.676v6.485H102.77v-34.973h8.431
	V167.291z M146.486,164.48c0-0.544-0.076-1.036-0.229-1.477s-0.453-0.856-0.9-1.249c-0.449-0.393-1.078-0.781-1.886-1.165
	c-0.81-0.385-1.87-0.793-3.183-1.226c-1.537-0.512-3.019-1.088-4.443-1.729c-1.426-0.64-2.69-1.4-3.795-2.281
	c-1.105-0.881-1.99-1.91-2.654-3.087c-0.665-1.177-0.997-2.55-0.997-4.119c0-1.505,0.336-2.862,1.009-4.071
	c0.672-1.209,1.609-2.237,2.811-3.087c1.201-0.848,2.621-1.505,4.264-1.969c1.641-0.465,3.43-0.697,5.367-0.697
	c1.906,0,3.66,0.257,5.261,0.769c1.601,0.513,2.979,1.241,4.132,2.187c1.152,0.944,2.053,2.086,2.701,3.423
	c0.649,1.337,0.974,2.83,0.974,4.479h-8.407c0-0.656-0.1-1.262-0.3-1.813c-0.2-0.553-0.505-1.024-0.913-1.417
	s-0.912-0.701-1.514-0.925c-0.6-0.225-1.309-0.337-2.125-0.337c-0.801,0-1.506,0.093-2.113,0.276
	c-0.609,0.185-1.117,0.44-1.525,0.769s-0.717,0.705-0.926,1.129c-0.207,0.425-0.312,0.877-0.312,1.357
	c0,0.528,0.147,1.005,0.444,1.429c0.296,0.425,0.721,0.825,1.273,1.201c0.552,0.377,1.225,0.729,2.018,1.057
	c0.792,0.329,1.685,0.653,2.678,0.973c1.857,0.593,3.515,1.249,4.973,1.97c1.457,0.721,2.686,1.546,3.687,2.475
	s1.761,1.978,2.282,3.146c0.52,1.169,0.78,2.49,0.78,3.963c0,1.569-0.309,2.967-0.925,4.191c-0.617,1.226-1.489,2.254-2.618,3.087
	s-2.49,1.465-4.083,1.897c-1.594,0.433-3.367,0.648-5.32,0.648c-1.201,0-2.395-0.101-3.579-0.301
	c-1.186-0.199-2.317-0.508-3.399-0.924c-1.08-0.417-2.09-0.941-3.025-1.574c-0.938-0.632-1.746-1.389-2.427-2.27
	c-0.681-0.88-1.217-1.881-1.609-3.002c-0.392-1.121-0.588-2.37-0.588-3.747h8.455c0,1.024,0.137,1.885,0.408,2.582
	c0.272,0.696,0.674,1.261,1.201,1.693c0.529,0.433,1.174,0.74,1.934,0.925c0.761,0.184,1.637,0.276,2.631,0.276
	c0.801,0,1.484-0.093,2.053-0.276c0.568-0.185,1.037-0.433,1.406-0.745c0.367-0.312,0.636-0.676,0.805-1.093
	C146.402,165.386,146.486,164.945,146.486,164.48z M171.299,150.43l5.717-11.626h9.632l-9.776,17.343l10.041,17.63h-9.729
	l-5.885-11.842l-5.885,11.842h-9.703l10.016-17.63l-9.752-17.343h9.607L171.299,150.43z"/>
</svg>
